<svg xmlns="http://www.w3.org/2000/svg" width="132.948" height="30.357" viewBox="0 0 132.948 30.357">
  <g id="logoipsum-logo-7" transform="translate(0 0)">
    <path id="Path_32" data-name="Path 32" d="M36.87,10.168h3.358V23.745H36.87Zm4.69,8.451c0-3.358,2.06-5.361,5.238-5.361s5.238,2,5.238,5.361-2.015,5.373-5.238,5.373S41.56,22.032,41.56,18.619Zm7.108,0c0-1.847-.728-2.933-1.869-2.933s-1.858,1.119-1.858,2.933.705,2.91,1.858,2.91,1.869-1.03,1.869-2.9ZM53.3,24.405h3.224a1.735,1.735,0,0,0,1.813,1.007c1.276,0,1.948-.694,1.948-1.7v-1.88h-.067a3.179,3.179,0,0,1-3.056,1.836c-2.451,0-4.074-1.869-4.074-5.082s1.545-5.238,4.119-5.238a3.212,3.212,0,0,1,3.089,1.97h0V13.447h3.358V23.633c0,2.451-2.16,3.974-5.35,3.974-2.966,0-4.813-1.332-5-3.19Zm7-5.8c0-1.634-.75-2.664-1.936-2.664s-1.914,1.019-1.914,2.664.716,2.574,1.914,2.574,1.936-.907,1.936-2.563Zm4.623,0c0-3.358,2.06-5.361,5.238-5.361s5.25,2,5.25,5.361-2.015,5.373-5.25,5.373-5.238-1.948-5.238-5.361Zm7.108,0c0-1.847-.728-2.933-1.869-2.933s-1.8,1.13-1.8,2.955.705,2.91,1.847,2.91,1.824-1.041,1.824-2.91Zm4.656-7.6a1.713,1.713,0,1,1,1.746,1.668,1.634,1.634,0,0,1-1.746-1.645Zm0,2.462h3.358V23.745H76.684Zm15.547,5.138c0,3.358-1.489,5.272-4.041,5.272a3.2,3.2,0,0,1-3.134-1.9h-.067v5.059H81.631V13.447h3.358v1.836h.067A3.212,3.212,0,0,1,88.168,13.3c2.574.045,4.108,1.97,4.108,5.328Zm-3.358,0c0-1.634-.75-2.675-1.925-2.675s-1.925,1.052-1.936,2.675.761,2.664,1.936,2.664,1.925-1.019,1.925-2.642ZM98,13.235c2.787,0,4.477,1.321,4.556,3.436H99.5c0-.728-.6-1.186-1.533-1.186s-1.343.358-1.343.884.369.694,1.119.851l2.149.437c2.048.437,2.921,1.265,2.921,2.821,0,2.127-1.936,3.492-4.791,3.492S93.294,22.6,93.149,20.51h3.235c.1.761.705,1.209,1.69,1.209s1.433-.325,1.433-.862-.313-.649-1.119-.817l-1.936-.414c-2-.414-3.056-1.477-3.056-3.045.022-2.015,1.824-3.324,4.6-3.324Zm16.017,10.488h-3.235V21.809h-.067a2.921,2.921,0,0,1-2.977,2.138,3.571,3.571,0,0,1-3.761-3.862V13.447h3.358v5.865c0,1.22.627,1.869,1.668,1.869a1.713,1.713,0,0,0,1.7-1.936v-5.8h3.358Zm1.623-10.275h3.246v1.981h.067a2.977,2.977,0,0,1,2.921-2.171,2.675,2.675,0,0,1,2.854,2.239h.067a3.158,3.158,0,0,1,3.156-2.239,3.256,3.256,0,0,1,3.358,3.492v7h-3.358v-6.1c0-1.119-.5-1.634-1.444-1.634a1.465,1.465,0,0,0-1.466,1.657v6.078h-3.19V17.6c0-1.03-.5-1.589-1.422-1.589a1.5,1.5,0,0,0-1.489,1.679v6.055H115.58Z" transform="translate(1.633 -1.615)" fill="#b8b6c4"/>
    <path id="Path_33" data-name="Path 33" d="M31.583,11.6a14.829,14.829,0,0,0-2.239-3.6A15.144,15.144,0,1,0,8.436,29.618a14.651,14.651,0,0,0,3.582,2.048,14.988,14.988,0,0,0,5.675,1.119A15.178,15.178,0,0,0,32.837,17.619,14.988,14.988,0,0,0,31.583,11.6Zm-13.9-6.078a11.988,11.988,0,0,1,5.059,1.119h0a4.913,4.913,0,0,1-1.209.347A6.414,6.414,0,0,0,16.1,12.414,3.358,3.358,0,0,1,13.07,15.38a6.414,6.414,0,0,0-5.429,5.429,3.257,3.257,0,0,1-.884,1.948h0A12.089,12.089,0,0,1,17.692,5.5ZM8.425,25.454c.134-.123.269-.235.4-.369a6.134,6.134,0,0,0,1.813-3.615,3.268,3.268,0,0,1,.974-2.037,3.168,3.168,0,0,1,2.026-.963,6.414,6.414,0,0,0,5.429-5.429,3.268,3.268,0,0,1,.974-2.138,3.213,3.213,0,0,1,2.048-.929,6.134,6.134,0,0,0,3.358-1.6,11.763,11.763,0,0,1,2.642,3.112.965.965,0,0,1-.146.157,3.212,3.212,0,0,1-2.026.985,6.391,6.391,0,0,0-5.429,5.429,3.358,3.358,0,0,1-3.011,3,6.447,6.447,0,0,0-5.462,5.429,3.515,3.515,0,0,1-.548,1.533,12.19,12.19,0,0,1-3.045-2.563Zm9.257,4.321a12.135,12.135,0,0,1-3.358-.47,6.468,6.468,0,0,0,.716-2.239,3.358,3.358,0,0,1,3-3,6.414,6.414,0,0,0,5.44-5.429,3.358,3.358,0,0,1,3-3,6.391,6.391,0,0,0,2.865-1.119,12.111,12.111,0,0,1-11.663,15.2Z" transform="translate(-2.471 -2.429)" fill="#b8b6c4"/>
  </g>
</svg>
