<svg xmlns="http://www.w3.org/2000/svg" width="131.717" height="26.432" viewBox="0 0 131.717 26.432">
  <g id="logoipsum-logo-3" transform="translate(0 0)">
    <path id="Path_8" data-name="Path 8" d="M45.1,26.559a2.965,2.965,0,0,1-1.869-.537,1.746,1.746,0,0,1-.705-1.466V14.18a.291.291,0,0,1,.325-.325h1.88c.213,0,.313.112.313.325v9.57c0,.425.19.638.582.638a1.611,1.611,0,0,0,.492-.056c.224,0,.347.067.358.269l.168,1.4a.291.291,0,0,1-.269.347A4.216,4.216,0,0,1,45.1,26.559Z" transform="translate(-2.761 -5.063)" fill="#b8b6c4"/>
    <path id="Path_9" data-name="Path 9" d="M55.134,24.934a5.272,5.272,0,0,1-6.716,0,4.477,4.477,0,0,1,0-6.3,5.294,5.294,0,0,1,6.716,0,4.544,4.544,0,0,1,0,6.29Zm-4.947-1.477a2.384,2.384,0,0,0,3.2,0,2.507,2.507,0,0,0,0-3.291,2.384,2.384,0,0,0-3.2,0,2.507,2.507,0,0,0,0,3.291Z" transform="translate(-2.213 -4.636)" fill="#b8b6c4"/>
    <path id="Path_10" data-name="Path 10" d="M65.619,17.712c.213,0,.313.112.313.325v8.025a3.649,3.649,0,0,1-1.242,2.877,4.7,4.7,0,0,1-3.257,1.119,5.238,5.238,0,0,1-3.033-.839,3.358,3.358,0,0,1-1.466-2.239c0-.224,0-.325.3-.325h1.88a.414.414,0,0,1,.369.257,1.466,1.466,0,0,0,.683.795A2.618,2.618,0,0,0,61.421,28a1.981,1.981,0,0,0,1.444-.515,1.9,1.9,0,0,0,.526-1.4V25.38a3.75,3.75,0,0,1-2.328.728,4.342,4.342,0,0,1-3.179-1.22,4.477,4.477,0,0,1,0-6.223,4.377,4.377,0,0,1,3.179-1.209,3.761,3.761,0,0,1,2.384.772v-.179a.291.291,0,0,1,.313-.325Zm-4.343,6.4a1.97,1.97,0,0,0,1.533-.66,2.742,2.742,0,0,0,0-3.358,1.958,1.958,0,0,0-1.522-.649,2.015,2.015,0,0,0-1.556.66,2.373,2.373,0,0,0-.6,1.679,2.418,2.418,0,0,0,.593,1.668,2.026,2.026,0,0,0,1.556.66Z" transform="translate(-1.079 -4.634)" fill="#b8b6c4"/>
    <path id="Path_11" data-name="Path 11" d="M74.421,24.934a5.294,5.294,0,0,1-6.716,0,4.556,4.556,0,0,1,0-6.3,5.305,5.305,0,0,1,6.716,0,4.544,4.544,0,0,1,0,6.29Zm-4.959-1.477a2.355,2.355,0,0,0,3.212,0,2.541,2.541,0,0,0,0-3.291,2.355,2.355,0,0,0-3.212,0,2.541,2.541,0,0,0,0,3.291Z" transform="translate(0.092 -4.636)" fill="#b8b6c4"/>
    <path id="Path_12" data-name="Path 12" d="M78.583,16.236a1.623,1.623,0,0,1-2.138,0,1.354,1.354,0,0,1,0-1.97,1.657,1.657,0,0,1,2.138,0,1.354,1.354,0,0,1,0,1.97Zm.235,10.32a3.01,3.01,0,0,1-1.869-.537,1.769,1.769,0,0,1-.694-1.466V18.464a.291.291,0,0,1,.325-.325h1.88c.213,0,.313.112.313.325v5.283q0,.638.571.638a1.733,1.733,0,0,0,.5-.056c.224,0,.347.067.358.269l.168,1.4a.291.291,0,0,1-.269.347A4.238,4.238,0,0,1,78.818,26.556Z" transform="translate(1.235 -5.06)" fill="#b8b6c4"/>
    <path id="Path_13" data-name="Path 13" d="M86.757,17.446a4.388,4.388,0,0,1,3.2,1.209,4.589,4.589,0,0,1,0,6.257,4.354,4.354,0,0,1-3.2,1.22,3.85,3.85,0,0,1-2.339-.728v4.041c0,.213-.112.313-.325.313h-1.88a.269.269,0,0,1-.313-.313V20.266a.582.582,0,0,0-.66-.66h-.369q-.369,0-.369-.269V18.016a.358.358,0,0,1,.257-.369,3.36,3.36,0,0,1,1.209-.2,2.071,2.071,0,0,1,2.026,1.119,3.772,3.772,0,0,1,2.765-1.119Zm-1.746,6.011a2.138,2.138,0,0,0,3.089,0,2.418,2.418,0,0,0,.616-1.713,2.384,2.384,0,0,0-.616-1.713,2.138,2.138,0,0,0-3.089,0,2.474,2.474,0,0,0-.593,1.713A2.507,2.507,0,0,0,85.011,23.456Z" transform="translate(1.769 -4.635)" fill="#b8b6c4"/>
    <path id="Path_14" data-name="Path 14" d="M95.215,26.136a5.4,5.4,0,0,1-2.877-.694,2.731,2.731,0,0,1-1.3-1.981c0-.224.078-.336.325-.336H93.01a.426.426,0,0,1,.369.246c.235.6.851.907,1.836.907a2.092,2.092,0,0,0,1-.2.649.649,0,0,0,.381-.548c0-.291-.179-.492-.537-.627a6.055,6.055,0,0,0-1.31-.28,12.458,12.458,0,0,1-1.567-.28,2.574,2.574,0,0,1-1.31-.75,2.4,2.4,0,0,1,.481-3.47,4.612,4.612,0,0,1,2.709-.716,4.948,4.948,0,0,1,2.642.66,2.5,2.5,0,0,1,1.231,1.757q0,.336-.3.336H96.972a.347.347,0,0,1-.336-.2,1.12,1.12,0,0,0-.582-.593,1.971,1.971,0,0,0-.963-.224,1.949,1.949,0,0,0-.951.19.56.56,0,0,0-.358.515.716.716,0,0,0,.537.66,6.061,6.061,0,0,0,1.332.336,14.676,14.676,0,0,1,1.556.291,2.575,2.575,0,0,1,1.31.75,2.116,2.116,0,0,1,.548,1.533,2.238,2.238,0,0,1-1.041,1.948A4.891,4.891,0,0,1,95.215,26.136Z" transform="translate(3.027 -4.64)" fill="#b8b6c4"/>
    <path id="Path_15" data-name="Path 15" d="M109.871,25.542a.306.306,0,0,1,0,.119.3.3,0,0,1-.051.108.294.294,0,0,1-.088.08.3.3,0,0,1-.113.039,4.318,4.318,0,0,1-1.265.213,2.485,2.485,0,0,1-2.239-.974,4.052,4.052,0,0,1-2.854.974,3.471,3.471,0,0,1-2.619-1.019,3.671,3.671,0,0,1-1-2.7V18.009c0-.213.1-.325.313-.325h1.88c.213,0,.313.112.313.325V22.05a1.98,1.98,0,0,0,.481,1.377,1.678,1.678,0,0,0,1.287.526,1.859,1.859,0,0,0,1.343-.492,1.795,1.795,0,0,0,.5-1.332V18.009c0-.213.1-.325.313-.325h1.9c.213,0,.313.112.313.325v5.272c0,.437.19.649.56.649a1.766,1.766,0,0,0,.515-.056.291.291,0,0,1,.25.045.3.3,0,0,1,.086.1.306.306,0,0,1,.034.126Z" transform="translate(4.052 -4.606)" fill="#b8b6c4"/>
    <path id="Path_16" data-name="Path 16" d="M126.49,25.572a.282.282,0,0,1,0,.122.293.293,0,0,1-.05.112.276.276,0,0,1-.093.08.273.273,0,0,1-.118.033,4.341,4.341,0,0,1-1.287.213,2.988,2.988,0,0,1-1.869-.537,1.747,1.747,0,0,1-.75-1.466V21.5a1.981,1.981,0,0,0-.47-1.377,1.589,1.589,0,0,0-1.254-.526,1.4,1.4,0,0,0-1.119.492,1.991,1.991,0,0,0-.425,1.321v4.13c0,.213-.1.325-.313.325h-1.892a.293.293,0,0,1-.242-.083.292.292,0,0,1-.069-.111.287.287,0,0,1-.013-.13V21.5a2.072,2.072,0,0,0-.437-1.377,1.457,1.457,0,0,0-1.119-.526,1.624,1.624,0,0,0-1.231.492,1.848,1.848,0,0,0-.459,1.321v4.13a.287.287,0,0,1-.013.13.292.292,0,0,1-.18.181.3.3,0,0,1-.131.014h-1.824c-.213,0-.313-.112-.313-.325V20.266a.583.583,0,0,0-.165-.5.582.582,0,0,0-.5-.164h-.369q-.369,0-.369-.269V18.016a.359.359,0,0,1,.257-.369,3.361,3.361,0,0,1,1.209-.2,2.1,2.1,0,0,1,1.992,1.03,3.783,3.783,0,0,1,2.843-1.03,3.211,3.211,0,0,1,2.653,1.186,3.695,3.695,0,0,1,2.933-1.186,3.54,3.54,0,0,1,2.653,1.019,3.654,3.654,0,0,1,1,2.7v2.16c0,.425.19.638.548.638a1.679,1.679,0,0,0,.515-.056q.348,0,.369.269Z" transform="translate(5.219 -4.635)" fill="#b8b6c4"/>
    <path id="Path_17" data-name="Path 17" d="M7.459,17.624a15.323,15.323,0,0,1,29.74,0H35.856a10.847,10.847,0,0,0-6.346,1.936,3.2,3.2,0,0,1-.336.213h-.157a3.2,3.2,0,0,1-.336-.213,11.383,11.383,0,0,0-12.7,0,3.2,3.2,0,0,1-.336.213h-.157a3.2,3.2,0,0,1-.336-.213A10.847,10.847,0,0,0,8.8,17.624Zm25.979,7.018a3.772,3.772,0,0,1,2.418-.795h1.8V20.254h-1.8a7.142,7.142,0,0,0-4.287,1.366,4.074,4.074,0,0,1-4.835,0,7.611,7.611,0,0,0-8.7,0,4.074,4.074,0,0,1-4.835,0,7.141,7.141,0,0,0-4.343-1.366H7v3.593H8.8a3.772,3.772,0,0,1,2.418.795,7.589,7.589,0,0,0,8.686,0,3.8,3.8,0,0,1,2.418-.795,3.75,3.75,0,0,1,2.418.795,7.611,7.611,0,0,0,8.7,0Zm0,6.425a3.772,3.772,0,0,1,2.418-.795h1.8V26.679h-1.8a7.142,7.142,0,0,0-4.287,1.366,4.074,4.074,0,0,1-4.835,0,7.612,7.612,0,0,0-8.7,0,4.074,4.074,0,0,1-4.835,0,7.142,7.142,0,0,0-4.343-1.366H7v3.593H8.8a3.772,3.772,0,0,1,2.418.795,7.589,7.589,0,0,0,8.686,0,3.8,3.8,0,0,1,2.418-.795,3.75,3.75,0,0,1,2.418.795,7.611,7.611,0,0,0,8.7,0Z" transform="translate(-7 -6)" fill="#b8b6c4"/>
  </g>
</svg>
