<svg xmlns="http://www.w3.org/2000/svg" width="151.829" height="29.847" viewBox="0 0 151.829 29.847">
  <g id="logoipsum-logo-8" transform="translate(0 0)">
    <path id="Path_34" data-name="Path 34" d="M23.583,13.5a4.092,4.092,0,0,0-1.171,3.278l-.02-.02a4.862,4.862,0,0,1-5.254,5.254l.02.02a4.117,4.117,0,1,0,3.717,3.714l.021.02a4.862,4.862,0,0,1,5.254-5.254l-.021-.02A4.109,4.109,0,1,0,23.587,13.5Z" transform="translate(-0.807 -0.401)" fill="#b8b6c4"/>
    <path id="Path_35" data-name="Path 35" d="M16.48,20.548l-.021-.02A4.064,4.064,0,0,0,20.91,16.08l.021.02a4.862,4.862,0,0,1,5.254-5.254l-.021-.02A4.117,4.117,0,1,0,22.45,7.112l-.02-.021a4.861,4.861,0,0,1-5.254,5.254l.02.021a4.064,4.064,0,0,0-4.451,4.448l-.02-.02a4.863,4.863,0,0,1-5.254,5.254l.02.02A4.117,4.117,0,1,0,11.2,25.782l.021.02a4.862,4.862,0,0,1,5.254-5.254Z" transform="translate(-1.96 -1.556)" fill="#b8b6c4"/>
    <path id="Path_36" data-name="Path 36" d="M9.088,18.414a4.088,4.088,0,0,0,1.17-3.278l.021.02A4.862,4.862,0,0,1,15.535,9.9l-.021-.02A4.116,4.116,0,1,0,11.8,6.168l-.02-.02A4.862,4.862,0,0,1,6.526,11.4l.02.02A4.109,4.109,0,1,0,9.09,18.414Z" transform="translate(-2.07 -1.668)" fill="#b8b6c4"/>
    <path id="Path_37" data-name="Path 37" d="M39.317,6.655h3.324V22.832H39.317Z" transform="translate(2.374 -1.073)" fill="#b8b6c4"/>
    <path id="Path_38" data-name="Path 38" d="M43.969,16.787a5.873,5.873,0,1,1,5.873,5.849,5.807,5.807,0,0,1-5.873-5.849Zm8.422,0a2.55,2.55,0,1,0-2.549,2.62,2.486,2.486,0,0,0,2.549-2.62Z" transform="translate(2.929 -0.568)" fill="#b8b6c4"/>
    <path id="Path_39" data-name="Path 39" d="M67.571,11.243V21.764c0,3.723-2.9,5.3-5.851,5.3a5.666,5.666,0,0,1-5.252-2.686l2.836-1.64a2.532,2.532,0,0,0,2.526,1.4,2.208,2.208,0,0,0,2.5-2.371V20.747A3.936,3.936,0,0,1,61.1,22.187a5.631,5.631,0,0,1,0-11.257,3.936,3.936,0,0,1,3.236,1.441v-1.13Zm-3.235,5.318a2.686,2.686,0,1,0-2.681,2.574,2.507,2.507,0,0,0,2.681-2.574Z" transform="translate(4.322 -0.564)" fill="#b8b6c4"/>
    <path id="Path_40" data-name="Path 40" d="M67.982,16.787a5.873,5.873,0,1,1,5.873,5.849,5.807,5.807,0,0,1-5.873-5.849Zm8.422,0a2.55,2.55,0,1,0-2.549,2.62,2.486,2.486,0,0,0,2.549-2.62Z" transform="translate(5.794 -0.568)" fill="#b8b6c4"/>
    <path id="Path_41" data-name="Path 41" d="M79.861,8.769a1.995,1.995,0,1,1,1.995,1.995,2.015,2.015,0,0,1-1.995-1.995Zm.336,2.97h3.325V22.819h-3.33Z" transform="translate(7.211 -1.059)" fill="#b8b6c4"/>
    <path id="Path_42" data-name="Path 42" d="M97.227,16.783a5.564,5.564,0,0,1-5.3,5.849,4.158,4.158,0,0,1-3.3-1.352v5.475H85.305V11.243h3.324v1.041a4.161,4.161,0,0,1,3.3-1.351,5.563,5.563,0,0,1,5.3,5.851Zm-3.324,0a2.637,2.637,0,1,0-2.636,2.7,2.53,2.53,0,0,0,2.636-2.7Z" transform="translate(7.86 -0.563)" fill="#b8b6c4"/>
    <path id="Path_43" data-name="Path 43" d="M106.12,19c0,2.549-2.215,3.634-4.608,3.634A4.852,4.852,0,0,1,96.747,20l2.88-1.64a1.821,1.821,0,0,0,1.88,1.307c.8,0,1.2-.244,1.2-.686,0-1.22-5.452-.576-5.452-4.41,0-2.417,2.039-3.634,4.344-3.634a4.847,4.847,0,0,1,4.321,2.371l-2.836,1.529a1.609,1.609,0,0,0-1.484-.975c-.576,0-.931.224-.931.62C100.669,15.741,106.12,14.9,106.12,19Z" transform="translate(9.226 -0.563)" fill="#b8b6c4"/>
    <path id="Path_44" data-name="Path 44" d="M117.1,11.209V22.29h-3.324V21.248a3.787,3.787,0,0,1-3.168,1.352c-2.239,0-4.141-1.6-4.141-4.589v-6.8h3.324v6.315a1.827,1.827,0,0,0,1.927,2.015c1.219,0,2.061-.709,2.061-2.282V11.212Z" transform="translate(10.386 -0.53)" fill="#b8b6c4"/>
    <path id="Path_45" data-name="Path 45" d="M134.772,15.52v6.8h-3.324V15.808c0-1.108-.532-1.817-1.595-1.817-1.108,0-1.729.776-1.729,2.083v6.249H124.8V15.808c0-1.108-.532-1.817-1.6-1.817-1.108,0-1.728.776-1.728,2.083v6.249h-3.324V11.242h3.324v1.019a3.4,3.4,0,0,1,2.97-1.329,3.3,3.3,0,0,1,2.9,1.462,3.651,3.651,0,0,1,3.214-1.462C133.1,10.933,134.772,12.75,134.772,15.52Z" transform="translate(11.779 -0.564)" fill="#b8b6c4"/>
    <path id="Path_46" data-name="Path 46" d="M135.775,11.674a2.467,2.467,0,1,0-2.467-2.467A2.467,2.467,0,0,0,135.775,11.674Z" transform="translate(13.588 -1.063)" fill="#b8b6c4"/>
  </g>
</svg>
