<svg xmlns="http://www.w3.org/2000/svg" width="145.141" height="32.684" viewBox="0 0 145.141 32.684">
  <g id="logoipsum-logo-6" transform="translate(0 0)">
    <path id="Path_20" data-name="Path 20" d="M17.049,7.157V2.4h-15V35.084h15V30.327a11.585,11.585,0,1,1,0-23.17Z" transform="translate(-2.05 -2.4)" fill="#b8b6c4"/>
    <path id="Path_21" data-name="Path 21" d="M15.45,6.65V29.82a11.585,11.585,0,1,0,0-23.17Z" transform="translate(-0.451 -1.893)" fill="#b8b6c4"/>
    <path id="Path_22" data-name="Path 22" d="M33.32,9.25h3.358V25.424H33.32Z" transform="translate(1.681 -1.583)" fill="#b8b6c4"/>
    <path id="Path_23" data-name="Path 23" d="M38,19.376a5.876,5.876,0,1,1,5.843,5.876A5.8,5.8,0,0,1,38,19.376Zm8.417,0A2.552,2.552,0,1,0,43.865,22a2.485,2.485,0,0,0,2.53-2.619Z" transform="translate(2.239 -1.076)" fill="#b8b6c4"/>
    <path id="Path_24" data-name="Path 24" d="M61.6,13.827V24.359c0,3.716-2.91,5.294-5.854,5.294a5.6,5.6,0,0,1-5.25-2.686l2.832-1.634a2.541,2.541,0,0,0,2.53,1.4,2.239,2.239,0,0,0,2.507-2.373V23.341a3.951,3.951,0,0,1-3.235,1.433,5.6,5.6,0,0,1,0-11.193,3.951,3.951,0,0,1,3.235,1.433V13.894Zm-3.235,5.317a2.686,2.686,0,1,0-2.686,2.574,2.507,2.507,0,0,0,2.686-2.574Z" transform="translate(3.615 -1.067)" fill="#b8b6c4"/>
    <path id="Path_25" data-name="Path 25" d="M62,19.376a5.876,5.876,0,1,1,5.865,5.876A5.809,5.809,0,0,1,62,19.376Zm8.417,0A2.552,2.552,0,1,0,67.876,22a2.485,2.485,0,0,0,2.53-2.619Z" transform="translate(5.102 -1.076)" fill="#b8b6c4"/>
    <path id="Path_26" data-name="Path 26" d="M73.87,11.362a1.992,1.992,0,1,1,1.992,1.992,2.015,2.015,0,0,1-1.992-1.992Zm.325,2.966h3.358V25.41H74.195Z" transform="translate(6.519 -1.568)" fill="#b8b6c4"/>
    <path id="Path_27" data-name="Path 27" d="M91.285,19.374a5.6,5.6,0,0,1-5.339,5.876A4.163,4.163,0,0,1,82.588,23.9v5.473H79.23V13.833h3.358v1.041a4.153,4.153,0,0,1,3.358-1.343,5.6,5.6,0,0,1,5.339,5.843Zm-3.358,0a2.642,2.642,0,1,0-2.63,2.709,2.53,2.53,0,0,0,2.63-2.709Z" transform="translate(7.158 -1.073)" fill="#b8b6c4"/>
    <path id="Path_28" data-name="Path 28" d="M100.13,21.59c0,2.552-2.239,3.638-4.612,3.638a4.858,4.858,0,0,1-4.768-2.642l2.888-1.634a1.813,1.813,0,0,0,1.869,1.31c.795,0,1.2-.246,1.2-.694,0-1.22-5.451-.571-5.451-4.41,0-2.418,2.037-3.627,4.343-3.627a4.858,4.858,0,0,1,4.388,2.362L97.1,17.415a1.634,1.634,0,0,0-1.489-.974c-.582,0-.929.224-.929.616C94.679,18.332,100.13,17.493,100.13,21.59Z" transform="translate(8.533 -1.073)" fill="#b8b6c4"/>
    <path id="Path_29" data-name="Path 29" d="M111.137,13.8V24.881h-3.358V23.84a3.815,3.815,0,0,1-3.156,1.377c-2.239,0-4.153-1.6-4.153-4.589V13.8h3.358v6.324a1.822,1.822,0,0,0,.092.783,1.836,1.836,0,0,0,1.845,1.232,1.961,1.961,0,0,0,2.06-2.239V13.8Z" transform="translate(9.692 -1.04)" fill="#b8b6c4"/>
    <path id="Path_30" data-name="Path 30" d="M128.782,18.109v6.805h-3.358V18.4c0-1.119-.526-1.813-1.589-1.813s-1.735.772-1.735,2.082v6.246h-3.358V18.4c0-1.119-.526-1.813-1.589-1.813s-1.735.772-1.735,2.082v6.246H112.06V13.833h3.358v1.019a3.426,3.426,0,0,1,2.977-1.321,3.28,3.28,0,0,1,2.9,1.455,3.651,3.651,0,0,1,3.212-1.455C127.126,13.531,128.782,15.344,128.782,18.109Z" transform="translate(11.075 -1.073)" fill="#b8b6c4"/>
    <path id="Path_31" data-name="Path 31" d="M129.782,14.265A2.462,2.462,0,1,0,127.32,11.8,2.463,2.463,0,0,0,129.782,14.265Z" transform="translate(12.896 -1.572)" fill="#b8b6c4"/>
  </g>
</svg>
