<svg xmlns="http://www.w3.org/2000/svg" width="141.837" height="33.065" viewBox="0 0 141.837 33.065">
  <g id="logoipsum-logo-1" transform="translate(0 0)">
    <path id="Path_6" data-name="Path 6" d="M38.51,11.366H42.1V25.917H38.51Zm5.026,9.078c0-3.6,2.239-5.764,5.6-5.764s5.6,2.16,5.6,5.764-2.16,5.787-5.6,5.787S43.536,24.126,43.536,20.444Zm7.634,0c0-1.981-.772-3.145-2-3.145s-1.992,1.119-1.992,3.145.761,3.134,1.992,3.134,2.026-1.108,2.026-3.123Zm4.992,6.223h3.47a1.858,1.858,0,0,0,1.948,1.119c1.377,0,2.093-.739,2.093-1.836V23.936h.011a3.436,3.436,0,0,1-3.358,1.959c-2.63,0-4.376-2-4.376-5.451s1.668-5.6,4.477-5.6a3.436,3.436,0,0,1,3.358,2.115h-.1V14.937h3.559v10.9c0,2.63-2.328,4.276-5.753,4.276-3.112-.011-5.1-1.433-5.306-3.436Zm7.522-6.223c0-1.757-.806-2.865-2.082-2.865s-2.06,1.119-2.06,2.865.772,2.776,2.06,2.776S63.683,22.268,63.683,20.444Zm4.981,0c0-3.6,2.239-5.764,5.6-5.764s5.6,2.16,5.6,5.764-2.171,5.787-5.6,5.787-5.574-2.1-5.574-5.787Zm7.634,0c0-1.981-.784-3.145-2-3.145S72.3,18.418,72.3,20.444s.761,3.134,1.992,3.134,2.026-1.108,2.026-3.123Zm5.014-8.16a1.836,1.836,0,1,1,1.836,1.757A1.769,1.769,0,0,1,81.335,12.3Zm0,2.642H84.95V25.962H81.368Zm16.722,5.518c0,3.593-1.612,5.675-4.354,5.675a3.436,3.436,0,0,1-3.358-2.048h-.067v5.44H86.663V14.959h3.571v1.97H90.3A3.459,3.459,0,0,1,93.658,14.8c2.821-.022,4.444,2.048,4.444,5.652Zm-3.66,0c0-1.746-.817-2.877-2.082-2.877s-2.06,1.119-2.071,2.877.806,2.865,2.071,2.865,2.149-1.041,2.149-2.854Zm9.794-5.776c3.011,0,4.88,1.422,4.9,3.7h-3.28c0-.795-.66-1.287-1.645-1.287s-1.455.381-1.455.951.414.75,1.242.918l2.306.47c2.239.47,3.134,1.366,3.134,3.033,0,2.239-2.071,3.761-5.149,3.761S99.143,24.742,99,22.492h3.481c.1.817.75,1.3,1.8,1.3s1.545-.336,1.545-.929-.336-.694-1.2-.873l-2.082-.437c-2.16-.459-3.291-1.589-3.291-3.28.067-2.194,1.948-3.593,4.981-3.593Zm17.237,11.283h-3.481V23.88h-.067a3.157,3.157,0,0,1-3.212,2.295,3.84,3.84,0,0,1-3.951-4.153V14.937h3.593V21.25c0,1.3.683,2,1.8,2a1.839,1.839,0,0,0,1.751-1.327,1.86,1.86,0,0,0,.051-.777V14.937h3.582Zm1.735-11.025h3.492v2.127h.078a3.2,3.2,0,0,1,3.145-2.328,2.866,2.866,0,0,1,3.067,2.339h.157a3.358,3.358,0,0,1,3.358-2.339,3.493,3.493,0,0,1,3.615,3.75v7.488h-3.615v-6.57c0-1.119-.526-1.746-1.545-1.746a1.566,1.566,0,0,0-1.578,1.78v6.537H129.89v-6.6c0-1.119-.548-1.713-1.533-1.713a1.6,1.6,0,0,0-1.541,1.127,1.583,1.583,0,0,0-.059.675v6.514h-3.593Z" transform="translate(1.774 -1.258)" fill="#b8b6c4"/>
    <path id="Path_7" data-name="Path 7" d="M35.7,13.289A11.059,11.059,0,0,0,16.489,5.812H2.52V35.294H32.014V21.516A11.047,11.047,0,0,0,35.7,13.289Zm-5.675,0a5.4,5.4,0,1,1-1.584-3.808,5.4,5.4,0,0,1,1.584,3.808ZM26.339,29.619H8.195V11.487h5.529a10.694,10.694,0,0,0-.168,1.8,11.081,11.081,0,0,0,11.07,11.07,10.824,10.824,0,0,0,1.713-.146Z" transform="translate(-2.52 -2.23)" fill="#b8b6c4"/>
  </g>
</svg>
