<svg xmlns="http://www.w3.org/2000/svg" width="141.357" height="36.847" viewBox="0 0 141.357 36.847">
  <g id="logoipsum-logo-5" transform="translate(0 0)">
    <path id="Path_18" data-name="Path 18" d="M23.23,11.406h2.239V26.986h6.716v2.239H23.23Zm15.928,0a6.715,6.715,0,1,1-2.57.511,6.716,6.716,0,0,1,2.57-.511Zm0,11.193a1.853,1.853,0,1,1,0-.022Zm-4.477,4.41h8.954v2.239H34.681Zm28.654,2.239H61.1v-1.6A8.608,8.608,0,0,1,56.171,29.2a8.954,8.954,0,1,1,6.716-14.808L61.242,15.86A6.716,6.716,0,1,0,56.25,27.053a6.459,6.459,0,0,0,4.9-2.239H55.108V22.576h8.249Zm8.238-17.8a1.647,1.647,0,1,1,.022-.045Zm0,11.193a1.709,1.709,0,1,1,.022-.067ZM67.1,27.053H76.05v2.239H67.1ZM80.673,11.406h2.239V29.2H80.673Zm5.339,0h2.239a1.649,1.649,0,0,1,.347,0,6.716,6.716,0,1,1,0,13.353h-.347v4.477H86.012Zm2.239,2.239V22.5H88.6a4.477,4.477,0,1,0,0-8.876,1.642,1.642,0,0,0-.358.078Zm16.129-.951L102.723,14A2.171,2.171,0,0,0,99,15.267v.179c0,.985.683,1.645,2.015,1.735,5.126.313,7.477,2.72,7.477,5.9v.2A6.6,6.6,0,0,1,97.1,27.109l1.713-1.321a4.029,4.029,0,0,0,3.134,1.276,4.186,4.186,0,0,0,4.388-3.783v-.157c0-2.989-2.933-3.537-5.473-3.783-2.351-.224-4.041-1.69-4.041-3.806v-.09a4.309,4.309,0,0,1,4.4-3.985,4.186,4.186,0,0,1,3.145,1.287ZM117.252,26.93c2.787,0,4.992-3.011,4.992-6.716V11.26h2.239v8.954c0,4.925-3.224,8.9-7.186,8.9s-7.186-3.974-7.186-8.9V11.26h2.239v8.954c-.09,3.761,2.115,6.772,4.891,6.772Zm24.412,2.239h-2.239V18.088l-5.16,6.716-5.16-6.716V29.2h-2.239v-17.8l7.387,9.727,7.387-9.727Z" transform="translate(-0.307 -2.641)" fill="#b8b6c4"/>
    <path id="Path_19" data-name="Path 19" d="M14.928,9.649a6.089,6.089,0,0,0-12.178,0V28.062l5.014,3.593v8.753H9.914V31.655l5.015-3.593Zm-2.149,10.3L9.914,22.812V20.126l2.865-2.865ZM4.944,17.26l2.865,2.865v2.686L4.944,19.947Zm7.835-3.045-3.94,3.94L4.9,14.126V11.44l3.94,3.94,3.94-3.94ZM8.839,5.709A3.962,3.962,0,0,1,12.645,8.63L8.839,12.425,5.033,8.63A3.962,3.962,0,0,1,8.839,5.664ZM4.9,26.976V22.946l2.865,2.865v3.2Zm5.014,2.048V25.812l2.865-2.865v4.018Z" transform="translate(-2.75 -3.56)" fill="#b8b6c4"/>
  </g>
</svg>
