<svg xmlns="http://www.w3.org/2000/svg" version="1.1" xmlns:xlink="http://www.w3.org/1999/xlink" xmlns:svgjs="http://svgjs.com/svgjs" width="512" height="512" x="0" y="0" viewBox="0 0 64 64" style="enable-background:new 0 0 512 512" xml:space="preserve" class=""><g><path xmlns="http://www.w3.org/2000/svg" d="M43.68,51h13a1,1,0,0,0,1-1V37a1,1,0,0,0-1-1h-13V13a4,4,0,0,0-4-4h-3V4a1,1,0,0,0-1-1h-14a1,1,0,0,0-1,1V9h-3a4,4,0,0,0-4,4V39.46A4.86,4.86,0,0,0,9,38.26a2,2,0,0,0-1.25,1.16,2,2,0,0,0,.13,1.68A8.34,8.34,0,0,1,8.92,46,6.81,6.81,0,0,1,7,49.33a2.43,2.43,0,0,0,0,3.44l5.66,5.66a2.62,2.62,0,0,0,1.64.74A4,4,0,0,0,17.68,61h22a4,4,0,0,0,4-4Zm-5-2V45h17v4Zm-14.51.21-3-4.48,6.61-7.16a2.49,2.49,0,0,0-3.53-3.5l-4.58,4.29V21h18V36a1,1,0,0,0-1,1V50a1,1,0,0,0,1,1v3H22.76l1.07-1.07A2.9,2.9,0,0,0,24.17,49.21ZM55.68,43h-17V41h17Zm0-4h-17V38h17Zm-33-34h12V15h-12Zm-5,6h3v4h-1a1,1,0,0,0,0,2h18a1,1,0,0,0,0-2h-1V11h3a2,2,0,0,1,2,2V36h-2V20a1,1,0,0,0-1-1h-20a1,1,0,0,0-1,1V40.24l-2,1.87V13A2,2,0,0,1,17.68,11ZM8.45,51.35a.43.43,0,0,1,0-.61c2.45-2,3.56-7.27,1.11-10.57a3.28,3.28,0,0,1,.89-.17,2.37,2.37,0,0,1,2.07,1.23l1.74,3.23A1,1,0,0,0,15,45a1,1,0,0,0,.84-.25l9.81-9.19a.48.48,0,0,1,.69.68L19.18,44a1,1,0,0,0-.1,1.24l3.44,5.15a.92.92,0,0,1-.1,1.18l-4.71,4.7a.56.56,0,0,1-.56.13,2.51,2.51,0,0,0-2.32.73.41.41,0,0,1-.29.11.6.6,0,0,1-.43-.17ZM39.68,59h-22a2,2,0,0,1-1.37-.56.59.59,0,0,1,.54-.11,2.56,2.56,0,0,0,2.28-.69L20.76,56H38.68a1,1,0,0,0,1-1V51h2v6A2,2,0,0,1,39.68,59Z" fill="#026FC2" data-original="#026FC2" class=""></path><path xmlns="http://www.w3.org/2000/svg" d="M26.68,9h4a1,1,0,0,0,0-2h-4a1,1,0,0,0,0,2Z" fill="#026FC2" data-original="#026FC2" class=""></path><path xmlns="http://www.w3.org/2000/svg" d="M25.68,13h6a1,1,0,0,0,0-2h-6a1,1,0,0,0,0,2Z" fill="#026FC2" data-original="#026FC2" class=""></path><circle xmlns="http://www.w3.org/2000/svg" cx="53.68" cy="47" r="1" fill="#026FC2" data-original="#026FC2" class=""></circle></g></svg>