<svg xmlns="http://www.w3.org/2000/svg" version="1.1" xmlns:xlink="http://www.w3.org/1999/xlink" xmlns:svgjs="http://svgjs.com/svgjs" width="512" height="512" x="0" y="0" viewBox="0 0 512 512" style="enable-background:new 0 0 512 512" xml:space="preserve" class=""><g>
<g xmlns="http://www.w3.org/2000/svg">
	<path d="M488.468,340.686h-0.516v-24.564c0-4.142-3.358-7.5-7.5-7.5h-96.193c-4.142,0-7.5,3.358-7.5,7.5v24.564H255.484v-17.064   h72.661c12.976,0,23.532-10.557,23.532-23.532v-32.581h24.564c8.556,0,15.517-6.961,15.517-15.517V123.734   c0-8.556-6.961-15.516-15.517-15.516h-24.564V75.637c0-12.976-10.557-23.532-23.532-23.532H39.564   c-12.976,0-23.532,10.557-23.532,23.532v224.452c0,12.976,10.557,23.532,23.532,23.532h72.662v17.064H23.532   C10.557,340.686,0,351.242,0,364.218v64.129c0,12.976,10.557,23.532,23.532,23.532h0.542c-0.012,0.171-0.026,0.342-0.026,0.516   c0,4.142,3.358,7.5,7.5,7.5h16.032c4.142,0,7.5-3.358,7.5-7.5c0-0.174-0.014-0.345-0.026-0.516h401.891   c-0.012,0.171-0.026,0.342-0.026,0.516c0,4.142,3.358,7.5,7.5,7.5h16.032c4.142,0,7.5-3.358,7.5-7.5   c0-0.174-0.014-0.345-0.026-0.516h0.542c12.976,0,23.532-10.557,23.532-23.532v-64.129   C512,351.242,501.443,340.686,488.468,340.686z M497,364.218v40.597H367.709v-49.129h120.758   C493.172,355.686,497,359.513,497,364.218z M391.758,323.621h81.193v17.064h-81.193V323.621z M376.242,123.218   c0.285,0,0.517,0.231,0.517,0.516v128.258c0,0.285-0.232,0.517-0.517,0.517h-24.564V123.218H376.242z M31.032,300.089V75.637   c0-4.705,3.828-8.532,8.532-8.532h288.581c4.705,0,8.532,3.828,8.532,8.532v224.452c0,4.705-3.828,8.532-8.532,8.532H39.564   C34.86,308.621,31.032,304.793,31.032,300.089z M127.226,323.621h113.258v17.064H127.226V323.621z M15,428.347v-64.129   c0-4.705,3.828-8.532,8.532-8.532h329.177v81.193H23.532C18.828,436.879,15,433.051,15,428.347z M488.468,436.879H367.709v-17.064   H497v8.532C497,433.051,493.172,436.879,488.468,436.879z" fill="#026FC2" data-original="#026FC2" class=""></path>
	<path d="M328.145,372.75H39.564c-4.142,0-7.5,3.358-7.5,7.5s3.358,7.5,7.5,7.5h288.581c4.142,0,7.5-3.358,7.5-7.5   S332.287,372.75,328.145,372.75z" fill="#026FC2" data-original="#026FC2" class=""></path>
	<path d="M71.631,268.541h-8.534V99.169h200.916c4.142,0,7.5-3.358,7.5-7.5s-3.358-7.5-7.5-7.5H55.597c-4.142,0-7.5,3.358-7.5,7.5   v184.371c0,4.142,3.358,7.5,7.5,7.5h16.034c4.142,0,7.5-3.358,7.5-7.5S75.773,268.541,71.631,268.541z" fill="#026FC2" data-original="#026FC2" class=""></path>
	<path d="M319.613,276.041V91.669c0-4.142-3.358-7.5-7.5-7.5h-16.034c-4.142,0-7.5,3.358-7.5,7.5s3.358,7.5,7.5,7.5h8.534v169.371   H103.697c-4.142,0-7.5,3.358-7.5,7.5s3.358,7.5,7.5,7.5h208.416C316.255,283.541,319.613,280.183,319.613,276.041z" fill="#026FC2" data-original="#026FC2" class=""></path>
	<path d="M127.742,132.266c-12.976,0-23.532,10.557-23.532,23.532v56.113c0,12.976,10.557,23.532,23.532,23.532h112.226   c12.976,0,23.532-10.557,23.532-23.532v-56.113c0-12.976-10.557-23.532-23.532-23.532H127.742z M248.5,155.798v56.113   c0,4.705-3.828,8.532-8.532,8.532H127.742c-4.705,0-8.532-3.828-8.532-8.532v-56.113c0-4.705,3.828-8.532,8.532-8.532h112.226   C244.672,147.266,248.5,151.094,248.5,155.798z" fill="#026FC2" data-original="#026FC2" class=""></path>
	<path d="M223.936,188.379h-80.161c-4.142,0-7.5,3.358-7.5,7.5s3.358,7.5,7.5,7.5h80.161c4.142,0,7.5-3.358,7.5-7.5   S228.078,188.379,223.936,188.379z" fill="#026FC2" data-original="#026FC2" class=""></path>
</g>















</g></svg>