<svg xmlns="http://www.w3.org/2000/svg" version="1.1" xmlns:xlink="http://www.w3.org/1999/xlink" xmlns:svgjs="http://svgjs.com/svgjs" width="512" height="512" x="0" y="0" viewBox="0 0 512.906 512.906" style="enable-background:new 0 0 512 512" xml:space="preserve" class=""><g><g xmlns="http://www.w3.org/2000/svg"><path d="m499.184 344.643-38.201-32.399-5.696-41.133c-2.222-16.055-8.765-31.219-18.92-43.853l-16.555-20.595c-2.595-3.228-7.315-3.743-10.545-1.147-3.228 2.595-3.741 7.316-1.146 10.544l16.555 20.595c8.456 10.519 13.903 23.145 15.754 36.512l6.089 43.971c.253 1.828 1.171 3.498 2.578 4.691l40.387 34.252c1.409 1.196 3.133 1.78 4.847 1.78 2.127 0 4.24-.9 5.724-2.649 2.678-3.157 2.288-7.89-.871-10.569z" fill="#026FC2" data-original="#026FC2" class=""></path><path d="m161.603 350.955c11.673-.001 22.24-8.069 24.919-19.924 2.061-9.122-1.074-18.214-7.427-24.212 3.594-3.368 6.262-7.795 7.427-12.952 2.061-9.121-1.077-18.207-7.428-24.205 3.594-3.371 6.262-7.801 7.428-12.959 2.061-9.121-1.062-18.223-7.414-24.221 3.589-3.365 6.25-7.792 7.414-12.943 3.104-13.743-5.551-27.448-19.293-30.552l-16.797-3.794c-13.738-3.107-27.446 5.55-30.552 19.292-2.061 9.121 1.072 18.214 7.423 24.213-3.591 3.369-6.258 7.796-7.423 12.952-2.06 9.12 1.062 18.221 7.411 24.221-3.586 3.369-6.247 7.794-7.411 12.944-2.06 9.12 1.063 18.221 7.411 24.221-3.586 3.368-6.248 7.793-7.411 12.944-1.504 6.657-.325 13.501 3.318 19.271 3.645 5.771 9.317 9.776 15.975 11.28l16.797 3.794c1.888.425 3.773.63 5.633.63zm-16.802-114.228c.768 0 1.547.084 2.326.261l16.797 3.793c2.748.621 5.091 2.275 6.596 4.658s1.991 5.209 1.37 7.958-2.275 5.091-4.658 6.596-5.205 1.99-7.957 1.371l-16.797-3.793c-5.675-1.282-9.248-6.941-7.967-12.616 1.106-4.896 5.47-8.228 10.29-8.228zm2.326 37.425 16.797 3.793c2.748.621 5.091 2.275 6.596 4.658s1.991 5.209 1.37 7.958-2.275 5.091-4.658 6.596-5.205 1.991-7.957 1.371l-16.797-3.793c-5.675-1.282-9.248-6.941-7.967-12.616 1.106-4.896 5.47-8.227 10.29-8.227.768 0 1.547.084 2.326.26zm-12.616-66.362c1.282-5.675 6.944-9.248 12.616-7.967l16.797 3.795c2.749.621 5.091 2.275 6.596 4.658 1.505 2.382 1.991 5.208 1.37 7.958-.621 2.749-2.275 5.091-4.658 6.596-2.382 1.505-5.206 1.991-7.957 1.37l-16.797-3.794c-5.674-1.283-9.248-6.942-7.967-12.616zm1.371 119.45c-1.505-2.383-1.992-5.209-1.371-7.957 1.106-4.896 5.47-8.228 10.29-8.228.768 0 1.547.084 2.326.26l16.797 3.794c2.748.621 5.091 2.275 6.596 4.658s1.991 5.208 1.37 7.958c-.621 2.749-2.275 5.091-4.658 6.596s-5.205 1.99-7.957 1.371l-16.797-3.795c-2.749-.62-5.092-2.274-6.596-4.657z" fill="#026FC2" data-original="#026FC2" class=""></path><path d="m488.167 498.753-71.835-37.446c-1.07-.558-2.26-.849-3.467-.849h-10.75c-18.33 0-36.025-4.479-51.938-13.022 14.718-7.079 24.902-22.139 24.902-39.534v-25.577c0-4.142-3.357-7.5-7.5-7.5s-7.5 3.358-7.5 7.5v25.577c0 15.903-12.938 28.841-28.841 28.841h-141.697c-15.902 0-28.84-12.938-28.84-28.841v-35.2c0-4.142-3.357-7.5-7.5-7.5s-7.5 3.358-7.5 7.5v35.2c0 24.174 19.666 43.841 43.84 43.841h139.271c21.469 15.513 46.812 23.715 73.304 23.715h8.912l70.206 36.597c1.107.577 2.292.851 3.461.851 2.705 0 5.319-1.469 6.656-4.035 1.915-3.673.489-8.203-3.184-10.118z" fill="#026FC2" data-original="#026FC2" class=""></path><path d="m144.195 146.523c.411.799.923 1.521 1.506 2.166v14.124c0 4.142 3.357 7.5 7.5 7.5s7.5-3.358 7.5-7.5v-14.126c.583-.646 1.095-1.367 1.505-2.167l4.064-7.919c13.993-3.76 24.106-16.62 24.106-31.434v-32.805h19.01l7.402 15.785c4.845 10.331 15.348 17.005 26.757 17.005h33.688c11.411 0 21.914-6.675 26.757-17.005l7.403-15.785h19.845c15.903 0 28.841 12.938 28.841 28.841v41.97c-.426-.033-.854-.058-1.283-.07-7.474-.201-14.662 2.876-19.672 8.454-7.066 7.871-8.526 19.459-3.633 28.836l24.245 46.458-2.784 15.149c-3.228 17.555-2.057 35.553 3.127 52.364v53.998c0 4.142 3.357 7.5 7.5 7.5s7.5-3.358 7.5-7.5v-23.308c.503.718 1.014 1.432 1.535 2.14l3.814 5.171c1.471 1.994 3.741 3.048 6.042 3.048 1.546 0 3.106-.477 4.446-1.465 3.333-2.458 4.042-7.154 1.584-10.488l-3.814-5.171c-15.52-21.044-21.71-47.863-16.982-73.579l3.251-17.687c.303-1.645.047-3.343-.727-4.826l-25.438-48.746c-2.016-3.862-1.414-8.634 1.495-11.875 2.062-2.296 5.008-3.564 8.102-3.482 3.085.084 5.964 1.513 7.897 3.918l21.767 27.079c2.595 3.228 7.313 3.742 10.545 1.147 3.229-2.595 3.741-7.316 1.146-10.544l-21.767-27.079c-.887-1.104-1.857-2.123-2.896-3.051v-48.364c0-24.174-19.667-43.841-43.841-43.841h-140.861v-26.809c0-17.948-14.602-32.55-32.549-32.55h-114.205c-17.948 0-32.551 14.602-32.551 32.55v27.48c0 4.142 3.357 7.5 7.5 7.5s7.5-3.358 7.5-7.5v-27.48c0-9.677 7.873-17.55 17.551-17.55h114.205c9.677 0 17.549 7.873 17.549 17.55v74.618c0 8.732-6.514 16.205-15.151 17.381-2.428.331-4.541 1.827-5.66 4.007l-1.365 2.66-1.242-2.422c-1.284-2.502-3.86-4.076-6.673-4.076h-101.663c-9.678 0-17.551-7.873-17.551-17.55v-15.176c0-4.142-3.357-7.5-7.5-7.5s-7.5 3.358-7.5 7.5v15.176c0 17.948 14.603 32.55 32.551 32.55h97.081zm146.214-62.744c-2.385 5.086-7.557 8.374-13.176 8.374h-33.688c-5.618 0-10.791-3.287-13.177-8.374l-4.415-9.416h68.871z" fill="#026FC2" data-original="#026FC2" class=""></path><path d="m295.239 202.39c1.919 0 3.839-.732 5.304-2.197 2.929-2.929 2.929-7.678 0-10.606-10.823-10.823-25.214-16.784-40.52-16.784-15.307 0-29.697 5.96-40.521 16.784-2.929 2.929-2.929 7.678 0 10.606 2.93 2.929 7.678 2.929 10.607 0 7.989-7.99 18.613-12.39 29.913-12.39s21.923 4.4 29.912 12.39c1.467 1.464 3.386 2.197 5.305 2.197z" fill="#026FC2" data-original="#026FC2" class=""></path><path d="m274.02 223.609c1.919 0 3.839-.732 5.304-2.197 2.929-2.929 2.929-7.678-.001-10.606-5.161-5.161-12.016-8.003-19.299-8.003s-14.138 2.842-19.299 8.003c-2.93 2.929-2.93 7.678-.001 10.606s7.678 2.931 10.606.001c2.329-2.328 5.416-3.61 8.693-3.61s6.364 1.282 8.693 3.61c1.466 1.464 3.385 2.196 5.304 2.196z" fill="#026FC2" data-original="#026FC2" class=""></path><path d="m252.524 238.809v5.018c0 4.142 3.357 7.5 7.5 7.5s7.5-3.358 7.5-7.5v-5.018c0-4.142-3.357-7.5-7.5-7.5s-7.5 3.358-7.5 7.5z" fill="#026FC2" data-original="#026FC2" class=""></path><path d="m100.34 87.771c-5.001.031-6.17-.152-9.817-2.538-3.468-2.268-8.114-1.295-10.382 2.17-2.268 3.466-1.296 8.115 2.171 10.382 3.979 2.603 7.131 3.895 10.578 4.501v3.381c0 4.142 3.357 7.5 7.5 7.5s7.5-3.358 7.5-7.5v-4.235c7.365-2.666 12.981-9.104 14.343-17.208 1.69-10.053-3.751-19.131-13.538-22.591-4.772-1.687-10.032-3.71-12.855-5.924-.184-.145-.526-1.011-.284-2.299.116-.618.651-2.68 2.639-3.279 4.444-1.337 10.533 2.148 12.323 3.478 3.294 2.486 7.979 1.843 10.481-1.441 2.511-3.294 1.876-8-1.419-10.511-.79-.602-5.407-3.979-11.689-5.75v-3.743c0-4.142-3.357-7.5-7.5-7.5s-7.5 3.358-7.5 7.5v3.938c-6.208 2.26-10.795 7.735-12.075 14.531-1.251 6.64.959 13.107 5.768 16.879 4.518 3.543 10.895 6.066 17.113 8.264 3.703 1.309 4.081 3.964 3.745 5.961-.375 2.227-2.292 6.003-7.102 6.034z" fill="#026FC2" data-original="#026FC2" class=""></path></g></g></svg>